<mxfile host="app.diagrams.net" agent="Mozilla/5.0 (Windows NT 10.0; Win64; x64) AppleWebKit/537.36 (KHTML, like Gecko) Chrome/136.0.0.0 YaBrowser/25.6.0.0 Safari/537.36" version="27.1.6">
  <diagram name="Страница — 1" id="MXcQ6Uh7lXSKBEyBKKcI">
    <mxGraphModel dx="735" dy="477" grid="1" gridSize="10" guides="1" tooltips="1" connect="1" arrows="1" fold="1" page="1" pageScale="1" pageWidth="827" pageHeight="1169" math="0" shadow="0">
      <root>
        <mxCell id="0" />
        <mxCell id="1" parent="0" />
        <mxCell id="VYX5BPDOMlhhGxLI05wY-16" value="alt_1" style="shape=umlFrame;whiteSpace=wrap;html=1;pointerEvents=0;dashed=1;" vertex="1" parent="1">
          <mxGeometry x="70" y="290" width="660" height="260" as="geometry" />
        </mxCell>
        <mxCell id="VYX5BPDOMlhhGxLI05wY-9" value="main" style="shape=umlFrame;whiteSpace=wrap;html=1;pointerEvents=0;" vertex="1" parent="1">
          <mxGeometry x="70" y="120" width="660" height="430" as="geometry" />
        </mxCell>
        <mxCell id="VYX5BPDOMlhhGxLI05wY-1" value="Web api&amp;nbsp;&lt;br&gt;шлюз" style="shape=umlLifeline;perimeter=lifelinePerimeter;whiteSpace=wrap;html=1;container=1;dropTarget=0;collapsible=0;recursiveResize=0;outlineConnect=0;portConstraint=eastwest;newEdgeStyle={&quot;curved&quot;:0,&quot;rounded&quot;:0};" vertex="1" parent="1">
          <mxGeometry x="480" y="30" width="100" height="740" as="geometry" />
        </mxCell>
        <mxCell id="VYX5BPDOMlhhGxLI05wY-6" value="" style="html=1;points=[[0,0,0,0,5],[0,1,0,0,-5],[1,0,0,0,5],[1,1,0,0,-5]];perimeter=orthogonalPerimeter;outlineConnect=0;targetShapes=umlLifeline;portConstraint=eastwest;newEdgeStyle={&quot;curved&quot;:0,&quot;rounded&quot;:0};" vertex="1" parent="VYX5BPDOMlhhGxLI05wY-1">
          <mxGeometry x="45" y="70" width="10" height="180" as="geometry" />
        </mxCell>
        <mxCell id="VYX5BPDOMlhhGxLI05wY-3" value="Сайт банка россии" style="shape=umlLifeline;perimeter=lifelinePerimeter;whiteSpace=wrap;html=1;container=1;dropTarget=0;collapsible=0;recursiveResize=0;outlineConnect=0;portConstraint=eastwest;newEdgeStyle={&quot;curved&quot;:0,&quot;rounded&quot;:0};" vertex="1" parent="1">
          <mxGeometry x="650" y="30" width="100" height="740" as="geometry" />
        </mxCell>
        <mxCell id="VYX5BPDOMlhhGxLI05wY-22" value="" style="html=1;points=[[0,0,0,0,5],[0,1,0,0,-5],[1,0,0,0,5],[1,1,0,0,-5]];perimeter=orthogonalPerimeter;outlineConnect=0;targetShapes=umlLifeline;portConstraint=eastwest;newEdgeStyle={&quot;curved&quot;:0,&quot;rounded&quot;:0};" vertex="1" parent="VYX5BPDOMlhhGxLI05wY-3">
          <mxGeometry x="45" y="290" width="10" height="80" as="geometry" />
        </mxCell>
        <mxCell id="VYX5BPDOMlhhGxLI05wY-10" value="" style="html=1;points=[[0,0,0,0,5],[0,1,0,0,-5],[1,0,0,0,5],[1,1,0,0,-5]];perimeter=orthogonalPerimeter;outlineConnect=0;targetShapes=umlLifeline;portConstraint=eastwest;newEdgeStyle={&quot;curved&quot;:0,&quot;rounded&quot;:0};" vertex="1" parent="VYX5BPDOMlhhGxLI05wY-3">
          <mxGeometry x="45" y="120" width="10" height="80" as="geometry" />
        </mxCell>
        <mxCell id="VYX5BPDOMlhhGxLI05wY-4" value="система" style="shape=umlLifeline;perimeter=lifelinePerimeter;whiteSpace=wrap;html=1;container=1;dropTarget=0;collapsible=0;recursiveResize=0;outlineConnect=0;portConstraint=eastwest;newEdgeStyle={&quot;curved&quot;:0,&quot;rounded&quot;:0};" vertex="1" parent="1">
          <mxGeometry x="90" y="30" width="100" height="740" as="geometry" />
        </mxCell>
        <mxCell id="VYX5BPDOMlhhGxLI05wY-5" value="" style="html=1;points=[[0,0,0,0,5],[0,1,0,0,-5],[1,0,0,0,5],[1,1,0,0,-5]];perimeter=orthogonalPerimeter;outlineConnect=0;targetShapes=umlLifeline;portConstraint=eastwest;newEdgeStyle={&quot;curved&quot;:0,&quot;rounded&quot;:0};" vertex="1" parent="VYX5BPDOMlhhGxLI05wY-4">
          <mxGeometry x="45" y="70" width="10" height="540" as="geometry" />
        </mxCell>
        <mxCell id="VYX5BPDOMlhhGxLI05wY-7" value="&lt;span style=&quot;font-size: 12px;&quot;&gt;&lt;font style=&quot;color: rgb(0, 0, 0);&quot;&gt;https://example.com/api/currency?date=YYYY-MM-DD&amp;amp;code=XXX&lt;/font&gt;&lt;/span&gt;" style="html=1;verticalAlign=bottom;endArrow=block;curved=0;rounded=0;entryX=0;entryY=0;entryDx=0;entryDy=5;" edge="1" target="VYX5BPDOMlhhGxLI05wY-6" parent="1" source="VYX5BPDOMlhhGxLI05wY-4">
          <mxGeometry relative="1" as="geometry">
            <mxPoint x="245" y="105" as="sourcePoint" />
          </mxGeometry>
        </mxCell>
        <mxCell id="VYX5BPDOMlhhGxLI05wY-8" value="200 OK + JSON" style="html=1;verticalAlign=bottom;endArrow=open;dashed=1;endSize=8;curved=0;rounded=0;exitX=0;exitY=1;exitDx=0;exitDy=-5;" edge="1" source="VYX5BPDOMlhhGxLI05wY-6" parent="1" target="VYX5BPDOMlhhGxLI05wY-4">
          <mxGeometry relative="1" as="geometry">
            <mxPoint x="455" y="175" as="targetPoint" />
          </mxGeometry>
        </mxCell>
        <mxCell id="VYX5BPDOMlhhGxLI05wY-11" value="&lt;span id=&quot;docs-internal-guid-be763bf7-7fff-34bf-85fb-42253519a45e&quot;&gt;&lt;span style=&quot;font-family: Arial, sans-serif; font-variant-numeric: normal; font-variant-east-asian: normal; font-variant-alternates: normal; font-variant-position: normal; font-variant-emoji: normal; vertical-align: baseline; white-space: pre-wrap;&quot;&gt;&lt;font style=&quot;font-size: 10px;&quot;&gt;https://cbr.ru/scripts/XML_daily.asp?&lt;br&gt;date_req=&amp;lt;дата&amp;gt;&lt;/font&gt;&lt;/span&gt;&lt;/span&gt;" style="html=1;verticalAlign=bottom;endArrow=block;curved=0;rounded=0;entryX=0;entryY=0;entryDx=0;entryDy=5;" edge="1" target="VYX5BPDOMlhhGxLI05wY-10" parent="1" source="VYX5BPDOMlhhGxLI05wY-6">
          <mxGeometry relative="1" as="geometry">
            <mxPoint x="595" y="155" as="sourcePoint" />
          </mxGeometry>
        </mxCell>
        <mxCell id="VYX5BPDOMlhhGxLI05wY-12" value="ответ(XML)" style="html=1;verticalAlign=bottom;endArrow=open;dashed=1;endSize=8;curved=0;rounded=0;exitX=0;exitY=1;exitDx=0;exitDy=-5;" edge="1" source="VYX5BPDOMlhhGxLI05wY-10" parent="1" target="VYX5BPDOMlhhGxLI05wY-6">
          <mxGeometry relative="1" as="geometry">
            <mxPoint x="595" y="225" as="targetPoint" />
          </mxGeometry>
        </mxCell>
        <mxCell id="VYX5BPDOMlhhGxLI05wY-13" value="" style="endArrow=classic;html=1;rounded=0;" edge="1" parent="1" target="VYX5BPDOMlhhGxLI05wY-6">
          <mxGeometry width="50" height="50" relative="1" as="geometry">
            <mxPoint x="530" y="240" as="sourcePoint" />
            <mxPoint x="580" y="190" as="targetPoint" />
            <Array as="points">
              <mxPoint x="570" y="240" />
              <mxPoint x="570" y="250" />
              <mxPoint x="550" y="250" />
            </Array>
          </mxGeometry>
        </mxCell>
        <mxCell id="VYX5BPDOMlhhGxLI05wY-14" value="XML -&amp;gt; JSON" style="edgeLabel;html=1;align=center;verticalAlign=middle;resizable=0;points=[];" vertex="1" connectable="0" parent="VYX5BPDOMlhhGxLI05wY-13">
          <mxGeometry x="0.0546" y="1" relative="1" as="geometry">
            <mxPoint x="19" y="15" as="offset" />
          </mxGeometry>
        </mxCell>
        <mxCell id="VYX5BPDOMlhhGxLI05wY-18" value="" style="html=1;points=[[0,0,0,0,5],[0,1,0,0,-5],[1,0,0,0,5],[1,1,0,0,-5]];perimeter=orthogonalPerimeter;outlineConnect=0;targetShapes=umlLifeline;portConstraint=eastwest;newEdgeStyle={&quot;curved&quot;:0,&quot;rounded&quot;:0};" vertex="1" parent="1">
          <mxGeometry x="525" y="310" width="10" height="100" as="geometry" />
        </mxCell>
        <mxCell id="VYX5BPDOMlhhGxLI05wY-20" value="204 No Content" style="html=1;verticalAlign=bottom;endArrow=open;dashed=1;endSize=8;curved=0;rounded=0;exitX=0;exitY=1;exitDx=0;exitDy=-5;" edge="1" source="VYX5BPDOMlhhGxLI05wY-18" parent="1" target="VYX5BPDOMlhhGxLI05wY-5">
          <mxGeometry relative="1" as="geometry">
            <mxPoint x="455" y="385" as="targetPoint" />
          </mxGeometry>
        </mxCell>
        <mxCell id="VYX5BPDOMlhhGxLI05wY-24" value="ответ(XML)" style="html=1;verticalAlign=bottom;endArrow=open;dashed=1;endSize=8;curved=0;rounded=0;exitX=0;exitY=1;exitDx=0;exitDy=-5;" edge="1" parent="1" source="VYX5BPDOMlhhGxLI05wY-22" target="VYX5BPDOMlhhGxLI05wY-18">
          <mxGeometry relative="1" as="geometry">
            <mxPoint x="555" y="395" as="targetPoint" />
          </mxGeometry>
        </mxCell>
        <mxCell id="VYX5BPDOMlhhGxLI05wY-23" value="запрос курсов валют(XML)" style="html=1;verticalAlign=bottom;endArrow=block;curved=0;rounded=0;entryX=0;entryY=0;entryDx=0;entryDy=5;" edge="1" parent="1" target="VYX5BPDOMlhhGxLI05wY-22" source="VYX5BPDOMlhhGxLI05wY-18">
          <mxGeometry relative="1" as="geometry">
            <mxPoint x="555" y="325" as="sourcePoint" />
          </mxGeometry>
        </mxCell>
      </root>
    </mxGraphModel>
  </diagram>
</mxfile>
